<?xml version="1.0" encoding="UTF-8"?>
<svg width="89px" height="94px" viewBox="0 0 89 94" version="1.1" xmlns="http://www.w3.org/2000/svg" xmlns:xlink="http://www.w3.org/1999/xlink">
    <!-- Generator: Sketch 47.1 (45422) - http://www.bohemiancoding.com/sketch -->
    <title>bar-chart</title>
    <desc>Created with Sketch.</desc>
    <defs></defs>
    <g id="Page-1" stroke="none" stroke-width="1" fill="none" fill-rule="evenodd">
        <g id="Artboard-2" transform="translate(-463.000000, -2648.000000)" fill-rule="nonzero" fill="#FFDA44">
            <g id="bar-chart" transform="translate(463.000000, 2648.000000)">
                <path d="M87.1641838,90.332244 L83.1376883,90.332244 L83.1376883,31.9298309 C83.1376883,29.2114735 80.923694,27 78.2026473,27 L69.2027422,27 C66.4815119,27 64.2677012,29.2116569 64.2677012,31.9298309 L64.2677012,90.332244 L54.0436739,90.332244 L54.0436739,58.3906735 C54.0436739,55.6723161 51.8298632,53.4608426 49.1086329,53.4608426 L40.1087278,53.4608426 C37.3874975,53.4608426 35.1736868,55.6724995 35.1736868,58.3906735 L35.1736868,90.332244 L24.9496594,90.332244 L24.9496594,73.7899306 C24.9496594,71.0715732 22.7356652,68.8600997 20.0146185,68.8600997 L11.0145298,68.8600997 C8.29329948,68.8600997 6.07948878,71.0717566 6.07948878,73.7899306 L6.07948878,90.332244 L1.83581615,90.332244 C0.821894892,90.332244 0,91.1532711 0,92.166122 C0,93.1789728 0.821894892,94 1.83581615,94 L87.1641838,94 C88.1781051,94 89,93.1789728 89,92.166122 C89,91.1532711 88.1781051,90.332244 87.1641838,90.332244 Z M21.27766,90.332244 L9.7509375,90.332244 L9.7509375,73.7899306 C9.7509375,73.0939739 10.317654,72.5278558 11.0143462,72.5278558 L20.0142513,72.5278558 C20.7109435,72.5278558 21.27766,73.0939739 21.27766,73.7899306 L21.27766,90.332244 Z M50.371858,90.332244 L38.8451355,90.332244 L38.8451355,58.3906735 C38.8451355,57.6947168 39.4118519,57.1285986 40.1085442,57.1285986 L49.1084493,57.1285986 C49.8049579,57.1285986 50.371858,57.6947168 50.371858,58.3906735 L50.371858,90.332244 Z M79.466056,90.332244 L67.9393335,90.332244 L67.9393335,31.9298309 C67.9393335,31.2338742 68.5060499,30.667756 69.2027422,30.667756 L78.2026473,30.667756 C78.8993395,30.667756 79.466056,31.2338742 79.466056,31.9298309 L79.466056,90.332244 Z" id="Shape"></path>
                <path d="M81.99562,1.92629787 C82.0211702,1.42640562 81.8459685,0.918087193 81.4656349,0.536344633 C81.0853012,0.154602073 80.5788588,-0.021431804 80.0808115,0.00439626748 C80.0514287,0.0031140228 80.0224109,0 79.9924807,0 L68.9511243,0 C67.943167,0 67.1261067,0.820087063 67.1261067,1.83177812 C67.1261067,2.84346917 67.943167,3.66355624 68.9511243,3.66355624 L75.7688425,3.66355624 L57.7272661,21.7721484 L50.9236005,14.9432795 C50.5814097,14.5998211 50.1171253,14.4067517 49.6331306,14.4067517 C49.1491359,14.4067517 48.6848515,14.5998211 48.3426607,14.9432795 L15.534502,47.8731548 C14.8218327,48.5884641 14.8218327,49.748346 15.534502,50.4638385 C15.890928,50.8212185 16.35795,51 16.824972,51 C17.291994,51 17.7591985,50.8212185 18.1154419,50.4634722 L49.6331306,18.8288473 L56.4367962,25.6577161 C57.1494655,26.3730255 58.3050667,26.3730255 59.0179185,25.6577161 L78.3499648,6.25424003 L78.3499648,12.4474818 C78.3499648,13.4591729 79.1670252,14.27926 80.1749824,14.27926 C81.1829396,14.27926 82,13.4591729 82,12.4474818 L82,2.01495593 C82,1.98509795 81.9968975,1.95597267 81.99562,1.92629787 Z" id="Shape"></path>
                <circle id="Oval" cx="12" cy="56" r="2"></circle>
            </g>
        </g>
    </g>
</svg>