<?xml version="1.0" encoding="UTF-8"?>
<svg width="98px" height="107px" viewBox="0 0 98 107" version="1.1" xmlns="http://www.w3.org/2000/svg" xmlns:xlink="http://www.w3.org/1999/xlink">
    <!-- Generator: Sketch 47.1 (45422) - http://www.bohemiancoding.com/sketch -->
    <title>faq</title>
    <desc>Created with Sketch.</desc>
    <defs></defs>
    <g id="Page-1" stroke="none" stroke-width="1" fill="none" fill-rule="evenodd">
        <g id="Artboard-2" transform="translate(-395.000000, -3434.000000)" fill-rule="nonzero">
            <g id="Group-18" transform="translate(395.000000, 3434.000000)">
                <g id="faq">
                    <path d="M49,107 L49,107 C45.1341333,107 42,103.865867 42,100 L42,100 C42,96.1341333 45.1341333,93 49,93 L49,93 C52.8658667,93 56,96.1341333 56,100 L56,100 C56,103.865867 52.8658667,107 49,107 Z" id="Shape" fill="#F9BA48"></path>
                    <path d="M23,44.4857251 L23,46.2573264 L37.1333333,46.2573264 L37.1333333,46.2573264 C37.1333333,42.3441584 40.2973156,39.1716769 44.2,39.1716769 L54.8,39.1716769 C58.7026844,39.1716769 61.8666667,42.3441584 61.8666667,46.2573264 L61.8666667,51.5717525 C61.8666667,55.4849205 58.7026844,58.657402 54.8,58.657402 L49.4998116,58.657402 C45.5971271,58.657402 42.4331449,61.8298835 42.4331449,65.7430515 L42.4331449,79.9143505 C42.4331449,83.8275185 45.5971271,87 49.4998116,87 L49.4998116,87 C53.402496,87 56.5664782,83.8275185 56.5664782,79.9143505 L56.5664782,72.828701 L56.5664782,72.828701 C67.2991431,72.828701 76,64.1044714 76,53.3429759 L76,44.4857251 C76,33.7242296 67.2991431,25 56.5664782,25 L42.4331449,25 C31.7008569,25.0003779 23,33.7246075 23,44.4857251 Z" id="Shape" fill="#F9BA48"></path>
                    <path d="M58.6133547,97 L58,93.7091996 C59.0480521,93.5136076 60.1046626,93.2741144 61.1373808,93 L62,96.2340501 C60.8834804,96.528152 59.7434252,96.7876327 58.6133547,97 Z" id="Shape" fill="#333333"></path>
                    <path d="M68.4489194,94 L67.0609645,90.7862728 C69.1035024,89.9023671 71.1060858,88.8537793 73.006729,87.672251 L74.8569621,90.6428762 C72.8088231,91.9185085 70.6523959,93.0477569 68.4489194,94 Z M29.4110529,93.9402514 C27.210937,92.9794194 25.0597375,91.8449431 23.0134655,90.5618421 L24.8741541,87.5949513 C26.7733037,88.7869356 28.772153,89.8407513 30.8113302,90.729885 L29.4110529,93.9402514 Z M80.7011598,86.3820549 L78.4345775,83.7127867 C80.1410489,82.2668708 81.7515546,80.6809192 83.2235262,79.0023573 L85.8560477,81.3093997 C84.2701869,83.1156742 82.5357099,84.8241104 80.7011598,86.3820549 Z M17.1845775,86.2857103 C15.3556285,84.724405 13.6260059,83.0122345 12.0420121,81.1988648 L14.6816284,78.8989176 C16.1521063,80.5845746 17.7588779,82.1738871 19.4582546,83.6235372 L17.1845775,86.2857103 Z M90.2125907,75.5380594 L87.2720082,73.6406683 C88.4848351,71.7589612 89.566596,69.7756814 90.4855514,67.7434826 L93.6748232,69.1860376 C92.6860407,71.3754499 91.5202631,73.5125823 90.2125907,75.5380594 Z M7.7048863,75.4137077 C6.40430866,73.3848696 5.24749284,71.2425093 4.26207096,69.0489892 L7.45470341,67.6172637 C8.36843108,69.6531968 9.44496434,71.6417046 10.6506965,73.5234117 L7.7048863,75.4137077 Z M96.1587286,62.3974776 L92.7909681,61.4433673 C93.3985018,59.2954055 93.8499512,57.0847077 94.1352344,54.8669148 L97.6079223,55.3116683 C97.303222,57.6989979 96.8133116,60.08334 96.1587286,62.3974776 Z M1.79758276,62.2466124 C1.15009449,59.9306077 0.67026611,57.5447718 0.372660489,55.1574423 L3.84534841,54.7235182 C4.12204322,56.9413111 4.56826495,59.153876 5.1687039,61.3070658 L1.79758276,62.2466124 Z M94.4993065,48.1556545 C94.4574849,45.9150824 94.2491236,43.6659215 93.8831845,41.4671734 L97.3364552,40.8932135 C97.7318936,43.2581374 97.9544443,45.6790755 98,48.0910513 L94.4993065,48.1556545 Z M3.50069347,48.0137516 L0,47.938319 C0.0526504298,45.524476 0.283416143,43.1035379 0.684455587,40.7404812 L4.13772633,41.3286314 C3.76133177,43.5221514 3.54774279,45.7716858 3.50069347,48.0137516 Z M92.293963,34.9467352 C91.6042797,32.8252869 90.7502972,30.7352065 89.7525529,28.7310148 L92.8839465,27.1678423 C93.9604798,29.324393 94.8827958,31.5791553 95.6232625,33.8649123 L92.293963,34.9467352 Z M5.74972566,34.8137946 L2.42416021,33.7196485 C3.17694934,31.4301573 4.10449308,29.1824901 5.18289337,27.0363954 L8.31092635,28.6047959 C7.3109416,30.5985316 6.44799732,32.6871182 5.74972566,34.8137946 Z M86.3164589,22.9563137 C85.0367921,21.12726 83.6070155,19.3747592 82.0719381,17.7469836 L84.6152152,15.3435966 C86.2675425,17.0942302 87.804487,18.9792982 89.1834802,20.9483876 L86.3164589,22.9563137 Z M11.760463,22.8476459 L8.89530878,20.8344919 C10.276169,18.8706305 11.8202082,16.9904171 13.4796303,15.2435177 L16.0158127,17.6573607 C14.4732671,19.2769209 13.0416235,21.0238202 11.760463,22.8476459 Z M77.1149561,13.2221482 C75.362929,11.8445698 73.489918,10.5808872 71.5452128,9.46582912 L73.2849174,6.4306008 C75.3748781,7.62781315 77.3931445,8.98784041 79.2781046,10.4707257 L77.1149561,13.2221482 Z M20.9866107,13.1414876 L18.8335442,10.3825965 C20.7345608,8.89635038 22.7561879,7.54341827 24.8442815,6.35815564 L26.5701701,9.40383996 C24.6325596,10.5017203 22.7543209,11.7605484 20.9866107,13.1414876 Z M65.4907867,6.58071913 C63.4097878,5.77187261 61.2496266,5.11202413 59.0704216,4.62021855 L59.8422545,1.20521326 C62.1894928,1.73734913 64.5158203,2.44798391 66.7577577,3.31956646 L65.4907867,6.58071913 Z M32.6402792,6.52843912 L31.3818966,3.26392558 C33.6257011,2.39757104 35.9572563,1.69365798 38.3097223,1.1704844 L39.0729668,4.58548969 C36.8885341,5.07206726 34.7250122,5.72668774 32.6402792,6.52843912 Z M52.4331067,3.62764512 C50.2135737,3.46296307 47.9380296,3.45960221 45.715136,3.61718912 L45.4649531,0.126751231 C47.854013,-0.0465196771 50.2994574,-0.0412916756 52.6922514,0.137207234 L52.4331067,3.62764512 Z" id="Shape" fill="#333333"></path>
                    <path d="M39.3848623,97 C38.2533654,96.7876517 37.1147366,96.5299786 36,96.2337616 L36.8626192,93 C37.895694,93.2744468 38.9519479,93.5135617 40,93.7091363 L39.3848623,97 Z" id="Shape" fill="#333333"></path>
                </g>
            </g>
        </g>
    </g>
</svg>