<?xml version="1.0" encoding="UTF-8"?>
<svg width="76px" height="79px" viewBox="0 0 76 79" version="1.1" xmlns="http://www.w3.org/2000/svg" xmlns:xlink="http://www.w3.org/1999/xlink">
    <!-- Generator: Sketch 47.1 (45422) - http://www.bohemiancoding.com/sketch -->
    <title>pen</title>
    <desc>Created with Sketch.</desc>
    <defs></defs>
    <g id="Page-1" stroke="none" stroke-width="1" fill="none" fill-rule="evenodd">
        <g id="Artboard-2" transform="translate(-933.000000, -845.000000)" fill-rule="nonzero">
            <g id="pen" transform="translate(933.000000, 845.000000)">
                <g id="Group" transform="translate(49.000000, 0.000000)" fill="#102D35">
                    <polygon id="Shape" points="26.9364706 17.28 9.40235294 16.8988235 9.65647059 0 26.9364706 0"></polygon>
                    <polygon id="Shape" points="12.7058824 26.9364706 0.127058824 14.2305882 9.65647059 0 26.9364706 17.28"></polygon>
                </g>
                <path d="M60,30.556962 L45.479798,16 L23.8888889,23.0886076 L10,60.3037975 L11.010101,61.3164557 L26.9191919,45.3670886 C26.0353535,43.2151899 26.540404,40.556962 28.3080808,38.7848101 C30.7070707,36.3797468 34.6212121,36.3797468 37.020202,38.7848101 C39.4191919,41.1898734 39.4191919,45.1139241 37.020202,47.5189873 C35.2525253,49.2911392 32.7272727,49.7974684 30.4545455,48.9113924 L14.7979798,64.9873418 L15.8080808,66 L52.9292929,52.0759494 L60,30.556962 Z" id="Shape" fill="#EFA91B"></path>
                <path d="M28.0055866,38.9113924 C30.4469274,36.5063291 34.4301676,36.5063291 36.8715084,38.9113924 C39.3128492,41.3164557 39.3128492,45.2405063 36.8715084,47.6455696 C35.0726257,49.4177215 32.5027933,49.9240506 30.1899441,49.0379747 L14,64.9873418 L15.027933,66 L52.8044693,52.0759494 L60,30.4303797 L45.2234637,16" id="Shape" fill="#D88F0E"></path>
                <polyline id="Shape" fill="#BC7400" points="52.6956522 52 60 30.4755245 45 16"></polyline>
                <path d="M66.3860759,31.3860759 C64.2341772,33.5379747 60.8164557,33.5379747 58.664557,31.3860759 L44.6139241,17.335443 C42.4620253,15.1835443 42.4620253,11.7658228 44.6139241,9.61392405 L44.6139241,9.61392405 C46.7658228,7.46202532 50.1835443,7.46202532 52.335443,9.61392405 L66.3860759,23.664557 C68.5379747,25.6898734 68.5379747,29.2341772 66.3860759,31.3860759 L66.3860759,31.3860759 Z" id="Shape" fill="#1EA4C4"></path>
                <path d="M66,31.4127199 L66,31.4127199 C63.8836265,33.5290934 60.5223275,33.5290934 58.405954,31.4127199 L44.5872801,17.594046 C42.4709066,15.4776725 42.4709066,12.1163735 44.5872801,10 L44.5872801,10" id="Shape" fill="#0C7FA3"></path>
                <g id="Group" transform="translate(0.000000, 63.000000)" fill="#0F2D35">
                    <path d="M73.0655391,15.9030303 L7.73784355,15.9030303 C3.55179704,15.9030303 0.126849894,12.6707071 0.126849894,8.4040404 C0.126849894,4.13737374 3.55179704,0.775757576 7.73784355,0.775757576 C8.75264271,0.775757576 9.64059197,1.68080808 9.64059197,2.71515152 C9.64059197,3.74949495 8.75264271,4.65454545 7.73784355,4.65454545 C5.58139535,4.65454545 3.93234672,6.20606061 3.93234672,8.27474747 C3.93234672,10.3434343 5.58139535,11.8949495 7.73784355,11.8949495 L73.0655391,11.8949495 C74.0803383,11.8949495 74.9682875,12.8 74.9682875,13.8343434 C74.9682875,14.8686869 74.0803383,15.9030303 73.0655391,15.9030303 Z" id="Shape"></path>
                    <ellipse id="Oval" cx="9.26004228" cy="2.84444444" rx="2.66384778" ry="2.71515152"></ellipse>
                </g>
            </g>
        </g>
    </g>
</svg>