<?xml version="1.0" encoding="UTF-8"?>
<svg width="95px" height="87px" viewBox="0 0 95 87" version="1.1" xmlns="http://www.w3.org/2000/svg" xmlns:xlink="http://www.w3.org/1999/xlink">
    <!-- Generator: Sketch 47.1 (45422) - http://www.bohemiancoding.com/sketch -->
    <title>search</title>
    <desc>Created with Sketch.</desc>
    <defs></defs>
    <g id="Page-1" stroke="none" stroke-width="1" fill="none" fill-rule="evenodd">
        <g id="Artboard-2" transform="translate(-464.000000, -2220.000000)" fill-rule="nonzero" fill="#FFDA44">
            <g id="Group-8" transform="translate(434.000000, 2185.000000)">
                <g id="search" transform="translate(30.000000, 35.000000)">
                    <path d="M93.4840426,0 L1.51595745,0 C0.678542553,0 0,0.687402353 0,1.53529412 L0,85.4647059 C0,86.3125976 0.678542553,87 1.51595745,87 L93.4840426,87 C94.3214574,87 95,86.3125976 95,85.4647059 L95,69.0882353 C95,68.2403435 94.3214574,67.5529412 93.4840426,67.5529412 C92.6466277,67.5529412 91.9680851,68.2403435 91.9680851,69.0882353 L91.9680851,83.9294118 L3.03191489,83.9294118 L3.03191489,15.3529412 L91.9680851,15.3529412 L91.9680851,62.9470588 C91.9680851,63.7949506 92.6466277,64.4823529 93.4840426,64.4823529 C94.3214574,64.4823529 95,63.7949506 95,62.9470588 L95,1.53529412 C95,0.687402353 94.3214574,0 93.4840426,0 Z M3.03191489,3.07058824 L59.1223404,3.07058824 L59.1223404,12.2823529 L3.03191489,12.2823529 L3.03191489,3.07058824 Z M62.1542553,12.2823529 L62.1542553,3.07058824 L91.9680851,3.07058824 L91.9680851,12.2823529 L62.1542553,12.2823529 Z" id="Shape"></path>
                    <path d="M76.8382353,5.61290323 C76.067932,5.61290323 75.4411765,6.2424254 75.4411765,7.01612903 C75.4411765,7.78983266 76.067932,8.41935484 76.8382353,8.41935484 C77.6085386,8.41935484 78.2352941,7.78983266 78.2352941,7.01612903 C78.2352941,6.2424254 77.6085386,5.61290323 76.8382353,5.61290323 Z" id="Shape"></path>
                    <path d="M68.4558824,5.61290323 C67.685579,5.61290323 67.0588235,6.2424254 67.0588235,7.01612903 C67.0588235,7.78983266 67.685579,8.41935484 68.4558824,8.41935484 C69.2261857,8.41935484 69.8529412,7.78983266 69.8529412,7.01612903 C69.8529412,6.2424254 69.2261857,5.61290323 68.4558824,5.61290323 Z" id="Shape"></path>
                    <path d="M85.2205882,5.61290323 C84.4502849,5.61290323 83.8235294,6.2424254 83.8235294,7.01612903 C83.8235294,7.78983266 84.4502849,8.41935484 85.2205882,8.41935484 C85.9908915,8.41935484 86.6176471,7.78983266 86.6176471,7.01612903 C86.6176471,6.2424254 85.9908915,5.61290323 85.2205882,5.61290323 Z" id="Shape"></path>
                    <path d="M53.7323093,63.5808314 C53.7323093,63.9903226 53.8900041,64.3831376 54.170661,64.6726019 L65.8566484,76.7251056 C66.1375049,77.0147758 66.5181684,77.1774194 66.9153997,77.1774194 C67.3126311,77.1774194 67.6930948,77.0147758 67.974151,76.7251056 L72.2085573,72.3578178 C72.793226,71.7548015 72.793226,70.7770874 72.2085573,70.1742769 L60.5227696,58.1217732 C59.9381009,57.5187568 58.9903349,57.5187568 58.4054666,58.1217732 L57.3469149,59.2135436 L55.1848985,56.9836802 C61.73702,49.1059684 61.4028666,37.192844 54.1710603,29.7340938 C50.4949736,25.9426464 45.6076307,23.8548387 40.40909,23.8548387 C35.2105493,23.8548387 30.3232064,25.9428523 26.6471197,29.7340938 C19.0588032,37.5605419 19.0588032,50.295325 26.6471197,58.1217732 C30.3232064,61.9132205 35.2105493,64.0010282 40.40909,64.0010282 C45.1054025,64.0010282 49.5474071,62.2965651 53.0721866,59.1721622 L55.2294123,61.3972905 L54.1708607,62.4890609 C53.8900041,62.7787311 53.7323093,63.1713403 53.7323093,63.5808314 L53.7323093,63.5808314 Z M28.764223,55.9380263 C22.3432478,49.3155521 22.3432478,38.5401089 28.764223,31.9176347 C31.8746044,28.7096453 36.0102019,26.9428013 40.4088904,26.9428013 C44.8075788,26.9428013 48.9431763,28.7096453 52.0535577,31.9176347 C58.474533,38.5401089 58.474533,49.3155521 52.0535577,55.9380263 C48.9431763,59.1460157 44.8075788,60.9128598 40.4088904,60.9128598 C36.0102019,60.9128598 31.8746044,59.1460157 28.764223,55.9380263 Z M69.0327027,71.2662532 L66.9155993,73.4500001 L57.3467153,63.5810373 L58.4048678,62.4896786 C58.4058658,62.4886492 59.4640183,61.3972905 59.4640183,61.3972905 L69.0327027,71.2662532 L69.0327027,71.2662532 Z" id="Shape"></path>
                    <path d="M49.2053568,33.3723084 C46.6972279,30.8545137 43.362892,29.4677419 39.8161027,29.4677419 C36.2693135,29.4677419 32.9349775,30.8543163 30.4268486,33.3723084 C25.249874,38.569839 25.249874,47.0269352 30.4268486,52.2244658 C32.9349775,54.7422605 36.2693135,56.1290323 39.8161027,56.1290323 C43.362892,56.1290323 46.6972279,54.7424579 49.2053568,52.2244658 C54.3825281,47.0269352 54.3825281,38.5696415 49.2053568,33.3723084 L49.2053568,33.3723084 Z M47.1187903,50.1296939 C45.1681546,52.0880005 42.574651,53.1664911 39.8161027,53.1664911 C37.0575544,53.1664911 34.4640508,52.0880005 32.5134151,50.1296939 C28.4866388,46.0870823 28.4866388,39.5094944 32.5134151,35.4668828 C34.4640508,33.5085762 37.0575544,32.4300856 39.8161027,32.4300856 C42.574651,32.4300856 45.1681546,33.5085762 47.1187903,35.4668828 C51.1455666,39.5094944 51.1455666,46.0870823 47.1187903,50.1296939 Z" id="Shape"></path>
                </g>
            </g>
        </g>
    </g>
</svg>