<?xml version="1.0" encoding="UTF-8"?>
<svg width="89px" height="89px" viewBox="0 0 89 89" version="1.1" xmlns="http://www.w3.org/2000/svg" xmlns:xlink="http://www.w3.org/1999/xlink">
    <!-- Generator: Sketch 47.1 (45422) - http://www.bohemiancoding.com/sketch -->
    <title>startup</title>
    <desc>Created with Sketch.</desc>
    <defs></defs>
    <g id="Page-1" stroke="none" stroke-width="1" fill="none" fill-rule="evenodd">
        <g id="Artboard-2" transform="translate(-1341.000000, -2435.000000)" fill-rule="nonzero" fill="#FFDA44">
            <g id="Group-8" transform="translate(1307.000000, 2401.000000)">
                <g id="Group-10">
                    <g id="startup" transform="translate(34.000000, 34.000000)">
                        <ellipse id="Oval" cx="1.5" cy="87" rx="1.5" ry="2"></ellipse>
                        <ellipse id="Oval" cx="46.5" cy="43" rx="1.5" ry="2"></ellipse>
                        <path d="M69.8057999,20.1972286 C68.388567,18.7801601 66.5042494,18 64.5,18 C62.4957506,18 60.6112574,18.7805112 59.1942001,20.1972286 C56.2686,23.1223023 56.2686,27.8815599 59.1942001,30.806458 C60.6572635,32.2689949 62.5782806,33 64.5,33 C66.4211926,33 68.3430877,32.2686438 69.8057999,30.806458 C72.7314,27.8813843 72.7314,23.1221268 69.8057999,20.1972286 Z M67.3128677,28.3137728 C65.7618308,29.864262 63.2379936,29.864262 61.6873079,28.3137728 C60.136271,26.7632836 60.136271,24.2402275 61.6873079,22.6895628 C62.438682,21.938369 63.4374704,21.5247648 64.5,21.5247648 C65.5625296,21.5247648 66.561318,21.938369 67.3126921,22.6895628 C68.863729,24.2402275 68.863729,26.7632836 67.3128677,28.3137728 Z" id="Shape"></path>
                        <path d="M22.0405731,71.3148458 C21.1849282,70.8887464 20.1462264,71.2371068 19.7201277,72.0925805 L17.6589268,76.232053 C16.7626027,78.0317712 14.9599568,79.2352605 12.9539144,79.3724673 L10.556592,79.5365638 C10.15135,79.5636259 9.88486593,79.3617803 9.76162136,79.2385356 C9.63837678,79.1152908 9.43601436,78.8482892 9.46359357,78.4433914 L9.62768984,76.0462378 C9.76506876,74.0403648 10.9685563,72.2375439 12.7680995,71.3412184 L16.9073935,69.2800145 C17.7630383,68.8539152 18.1112258,67.8150394 17.6851271,66.9595657 C17.2592007,66.104092 16.2203265,65.7557316 15.3646817,66.181831 L11.2253877,68.2430349 C8.33095007,69.6843952 6.39557933,72.5836635 6.17460095,75.8097458 L6.01050468,78.2068994 C5.92190648,79.5008831 6.39695829,80.768839 7.31396687,81.6858489 C8.1582353,82.5301186 9.30018677,83 10.4860926,83 C10.5879633,83 10.6905235,82.9965526 10.7929113,82.9894854 L13.1902337,82.8253889 C16.4163113,82.6045826 19.3155752,80.6693813 20.7569335,77.7745947 L22.8181343,73.6352946 C23.244233,72.7796485 22.8960456,71.7409451 22.0405731,71.3148458 Z" id="Shape"></path>
                        <path d="M87.7958143,1.16935337 C86.9768769,0.3578568 85.8486867,-0.0665134166 84.7027653,0.00849887144 L83.0777542,0.112711747 C68.5070648,1.04835453 54.8709132,8.12276516 45.6658199,19.522185 L41.8407511,24.2588001 L31.830801,23.9631223 C31.8137651,23.9625977 31.7965554,23.9624229 31.7796934,23.9624229 C23.8409893,23.9624229 16.3773766,27.0720232 10.7637177,32.7184027 L0.511267593,43.031106 C0.0236599651,43.521571 -0.131227164,44.2550827 0.116314106,44.9023916 C0.363855376,45.5498753 0.967063386,45.9901572 1.6557983,46.0254777 L23.3580752,47.14699 L22.4732542,48.2427989 C22.027367,48.7951621 21.95679,49.5634698 22.2948993,50.1883974 C22.6349209,50.8171717 22.991283,51.4359794 23.3629426,52.0448204 L18.2163788,58.1904075 C17.776402,58.7158432 17.6816618,59.4512784 17.9735311,60.0723592 C19.0977231,62.4617366 20.5897502,64.6085918 22.4087614,66.4532995 C24.2719266,68.3431196 26.4506027,69.8884777 28.8839473,71.0468842 C29.1217538,71.1601895 29.37677,71.2156181 29.6302216,71.2156181 C30.0232629,71.2156181 30.4130014,71.0820298 30.7300767,70.823421 C31.8387974,69.9187274 33.1170073,68.8456495 34.353323,67.8080669 C35.2344934,67.0684353 36.1360026,66.3118428 36.9785816,65.6141761 C37.4814867,65.9185966 37.9906499,66.2137498 38.5074618,66.4964884 C38.7689099,66.6395189 39.0555641,66.7099849 39.3411753,66.7099849 C39.7211789,66.7099849 40.0987489,66.585489 40.4113045,66.3413931 L41.6008585,65.4129193 L42.7207046,87.3343425 C42.756167,88.0271134 43.1937101,88.6338561 43.8372479,88.8828479 C44.0409827,88.9615322 44.2527139,89 44.4630545,89 C44.9176334,89 45.3640421,88.8211245 45.6974579,88.4855801 L55.9500819,78.1728767 C61.5637408,72.5263224 64.6550515,65.0191485 64.6550515,57.0337495 L64.6550515,47.4176638 L68.6996742,44.2606781 C80.8210261,34.799338 88.2032839,20.5323155 88.9535565,5.11755259 L88.9951031,4.26321683 C89.0517734,3.10848222 88.6144041,1.9810248 87.7958143,1.16935337 Z M5.7548314,42.7219645 L13.2318294,35.201152 C18.1800472,30.2239381 24.7576221,27.480132 31.7544873,27.4733127 L39.0703401,27.689432 L26.0831152,43.7724862 L5.7548314,42.7219645 Z M32.1171075,65.1123456 C31.2060374,65.8768065 30.2720211,66.660851 29.4052789,67.3779265 C27.7288127,66.464665 26.2122747,65.3251427 24.8869554,63.9808666 C23.6033566,62.6790799 22.5108026,61.1968441 21.629806,59.5640591 L25.397857,55.0645458 C26.5371726,56.6020354 27.7842661,58.0583929 29.1314886,59.4227772 C29.1325316,59.4238263 29.1335746,59.4247006 29.1346176,59.4257497 C29.1349653,59.4260994 29.1353129,59.426624 29.1356606,59.4269737 C29.1361821,59.4274983 29.1367036,59.427848 29.1372251,59.4283725 C30.6309907,60.9405084 32.2377491,62.3281483 33.9422028,63.5830741 C33.3403855,64.085604 32.7237922,64.6031713 32.1171075,65.1123456 Z M61.1651368,57.0337495 C61.1651368,64.0812326 58.4367939,70.7067935 53.482318,75.6903022 L46.00532,83.2111146 L44.9619614,62.7895875 L61.1649629,50.1424108 L61.1649629,57.0337495 L61.1651368,57.0337495 Z M85.4678138,4.94602099 C84.767432,19.3359657 77.8759108,32.654581 66.5602848,41.4869719 L39.1882003,62.8521852 C36.9182608,61.5180505 34.802513,59.9427925 32.8661632,58.1580595 L42.0943766,48.8757697 C42.7758104,48.1903428 42.7758104,47.0786222 42.0943766,46.3930204 C41.4127689,45.7074186 40.3076988,45.7074186 39.6260911,46.3930204 L30.4065695,55.6665675 C28.7115028,53.7790205 27.2102624,51.7251876 25.9320524,49.5284991 L48.3752148,21.7356595 C56.9682345,11.094231 69.6978357,4.49000224 83.2999155,3.61678227 L84.9249266,3.51256939 C85.1378747,3.4992805 85.2804195,3.60559162 85.3461292,3.67063724 C85.4116651,3.73550801 85.5199644,3.87661504 85.5095343,4.09186009 L85.4678138,4.94602099 Z" id="Shape"></path>
                    </g>
                </g>
            </g>
        </g>
    </g>
</svg>